<?xml version="1.0" encoding="UTF-8"?>
<svg xmlns="http://www.w3.org/2000/svg" xmlns:xlink="http://www.w3.org/1999/xlink" width="3001" height="3001" viewBox="0 0 3001 3001">
<path fill-rule="evenodd" fill="rgb(100%, 100%, 100%)" fill-opacity="1" d="M 1 0 L 3001 0 L 3001 3000 L 1 3000 L 1 0 "/>
<path fill-rule="evenodd" fill="rgb(0%, 0%, 0%)" fill-opacity="1" d="M 1601 2092.1875 L 841.910156 2092.1875 C 828.273438 2092.1875 819.183594 2083.097656 819.183594 2069.464844 C 819.183594 2055.828125 828.273438 2046.738281 841.910156 2046.738281 C 914.640625 2046.738281 973.730469 1987.648438 973.730469 1914.921875 C 973.730469 1849.011719 923.730469 1794.46875 860.09375 1785.371094 C 853.277344 1785.371094 846.453125 1785.371094 839.636719 1783.101562 C 835.089844 1783.101562 830.546875 1780.820312 826 1776.28125 L 823.726562 1774.011719 C 821.453125 1771.730469 819.183594 1767.191406 819.183594 1762.640625 C 819.183594 1760.371094 819.183594 1760.371094 819.183594 1758.101562 C 819.183594 1753.550781 821.457031 1749.011719 823.726562 1746.738281 C 823.726562 1744.460938 826 1744.460938 828.273438 1742.191406 C 828.273438 1742.191406 828.273438 1742.191406 830.546875 1739.910156 L 1075.988281 1562.648438 C 1060.089844 1508.101562 1010.089844 1469.460938 951 1469.460938 L 773.734375 1469.460938 C 760.09375 1469.460938 751.003906 1460.371094 751.003906 1446.738281 C 751.003906 1433.101562 760.09375 1424.011719 773.734375 1424.011719 C 846.460938 1424.011719 905.550781 1364.921875 905.550781 1292.199219 C 905.550781 1219.46875 846.460938 1160.371094 773.734375 1160.371094 C 766.910156 1160.371094 762.367188 1158.101562 757.820312 1153.558594 L 755.546875 1151.28125 C 753.277344 1149.011719 751.003906 1144.46875 751.003906 1139.921875 C 751.003906 1137.640625 751.003906 1137.640625 751.003906 1135.378906 C 751.003906 1130.828125 753.277344 1126.289062 755.546875 1124.011719 C 755.546875 1121.738281 757.820312 1121.738281 760.09375 1119.460938 C 760.09375 1119.460938 760.09375 1119.460938 762.367188 1117.191406 L 1262.371094 755.828125 C 1266.910156 753.558594 1271.460938 751.289062 1276 751.289062 L 1889.628906 751.289062 C 1991.898438 751.289062 2071.449219 830.828125 2071.449219 933.109375 C 2071.449219 980.828125 2050.988281 1028.558594 2014.628906 1058.109375 L 2010.089844 1062.648438 L 2073.71875 1062.648438 C 2171.449219 1062.648438 2251 1142.191406 2251 1239.921875 C 2251 1287.648438 2230.53125 1333.109375 2194.171875 1369.46875 L 2110.078125 1453.558594 C 2130.539062 1480.828125 2141.910156 1514.921875 2141.910156 1551.28125 C 2141.910156 1594.46875 2121.449219 1639.921875 2085.089844 1676.28125 L 1748.71875 2012.644531 C 1746.449219 2014.917969 1744.179688 2017.191406 1741.910156 2017.191406 C 1707.820312 2067.191406 1657.820312 2092.1875 1601 2092.1875 Z M 962.363281 2046.730469 L 1603.269531 2046.730469 C 1676 2046.730469 1735.089844 1987.640625 1735.089844 1914.910156 C 1735.089844 1842.191406 1676 1783.101562 1603.269531 1783.101562 L 962.363281 1783.101562 C 998.730469 1814.921875 1021.460938 1862.640625 1021.460938 1914.921875 C 1021.460938 1967.191406 996.457031 2014.917969 962.363281 2046.730469 Z M 1778.269531 1917.191406 C 1778.269531 1919.460938 1778.269531 1924 1778.269531 1926.28125 L 2050.988281 1653.550781 C 2078.261719 1626.28125 2094.179688 1592.191406 2094.179688 1560.371094 C 2094.179688 1535.378906 2087.359375 1512.648438 2076 1494.46875 L 1855.539062 1710.371094 C 1814.640625 1755.828125 1766.898438 1783.101562 1719.179688 1785.371094 C 1755.539062 1817.191406 1778.269531 1864.921875 1778.269531 1917.191406 C 1778.269531 1914.921875 1778.269531 1917.191406 1778.269531 1917.191406 Z M 1707.820312 1739.921875 C 1782.820312 1730.828125 1839.628906 1674.011719 1844.179688 1608.101562 C 1844.179688 1603.558594 1844.179688 1599.011719 1844.179688 1594.46875 C 1837.359375 1535.378906 1782.820312 1471.738281 1710.089844 1471.738281 L 1069.191406 1471.738281 C 1140.5 1536.570312 1156.828125 1652.269531 1085.089844 1724.011719 C 1080.550781 1728.558594 1076 1733.101562 1071.449219 1735.371094 C 1071.449219 1735.371094 1071.449219 1735.371094 1069.179688 1735.371094 C 1284.480469 1735.371094 1497.53125 1739.921875 1707.820312 1739.921875 Z M 914.640625 1739.921875 L 939.644531 1739.921875 C 985.09375 1735.371094 1019.191406 1724.011719 1041.910156 1703.550781 C 1064.640625 1680.828125 1080.550781 1651.28125 1082.820312 1617.191406 Z M 1891.910156 1608.101562 L 2160.078125 1344.460938 C 2187.359375 1317.191406 2203.261719 1283.101562 2203.261719 1246.738281 C 2203.261719 1174.011719 2144.179688 1114.921875 2071.449219 1114.921875 L 1962.359375 1114.921875 L 1676 1401.289062 C 1673.71875 1403.558594 1673.71875 1403.558594 1671.449219 1405.828125 C 1669.179688 1408.101562 1664.628906 1412.648438 1662.359375 1414.921875 C 1657.820312 1419.46875 1653.269531 1424.011719 1648.730469 1428.558594 L 1710.089844 1428.558594 C 1812.359375 1428.558594 1891.910156 1508.101562 1891.910156 1608.101562 Z M 1532.820312 1428.558594 C 1562.359375 1428.558594 1589.628906 1419.46875 1610.078125 1403.558594 C 1614.628906 1399.011719 1621.449219 1394.46875 1630.550781 1385.371094 C 1651 1362.648438 1662.359375 1333.109375 1662.359375 1299.011719 C 1662.359375 1226.289062 1603.269531 1167.199219 1530.539062 1167.199219 L 889.636719 1167.199219 C 926.003906 1199.011719 948.726562 1246.738281 948.726562 1299.011719 C 948.726562 1351.289062 926.003906 1396.738281 889.636719 1430.828125 C 1101.578125 1430.820312 1318.070312 1428.558594 1532.820312 1428.558594 "/>
</svg>
